# xmcd
#
# Track frame offsets: 
#        150
#        18715
#        32508
#        51988
#        72535
#        89828
#        104720
#        119448
#        130395
#        149805
#        163598
#        185628
#        204533
#        218243
#        235333
#        248580
#        272880
#        287133
#        306255
#        322958
#
# Disc length: 4525 seconds
#
# Revision: 0
# Processed by: cddbd v1.4PL0 Copyright (c) Steve Scherf et al.
# Submitted via: ExactAudioCopy v0.90b4
#
DISCID=4911ab14
DTITLE=Lightnin' Hopkins - Blues In My Bottle - Walkin' This Road By M
DTITLE=yself
DYEAR=1900
DGENRE=Blues
TTITLE0=Buddy Browns Blues
TTITLE1=Wine Spoodee-O-Dee
TTITLE2=Sail On, Little Girl, Sail On
TTITLE3=DC-7
TTITLE4=Goin' To Dallas To See My Pony Run
TTITLE5=Jailhouse Blues
TTITLE6=Blues In The Bottle
TTITLE7=Beans, Beans, Beans
TTITLE8=Catfish Blues
TTITLE9=My Grandpa Is Old Too
TTITLE10=Walkin' This Road By Myself
TTITLE11=Black Gal
TTITLE12=How Many More Years I Got To Let You Dog Me Around
TTITLE13=Baby Don't You Tear My Clothes
TTITLE14=Worried Life Blues
TTITLE15=Happy Blues For John Glenn
TTITLE16=Good Morning Little Schoolgirl
TTITLE17=The Devil Jumped The Black Man
TTITLE18=Coffee Blues
TTITLE19=Black Cadillac
EXTD=
EXTT0=
EXTT1=
EXTT2=
EXTT3=
EXTT4=
EXTT5=
EXTT6=
EXTT7=
EXTT8=
EXTT9=
EXTT10=
EXTT11=
EXTT12=
EXTT13=
EXTT14=
EXTT15=
EXTT16=
EXTT17=
EXTT18=
EXTT19=
PLAYORDER=
